<svg width="21" height="22" viewBox="0 0 21 22" fill="none" xmlns="http://www.w3.org/2000/svg">
<path d="M17.5 6.625H3.5C2.5335 6.625 1.75 7.4085 1.75 8.375V17.125C1.75 18.0915 2.5335 18.875 3.5 18.875H17.5C18.4665 18.875 19.25 18.0915 19.25 17.125V8.375C19.25 7.4085 18.4665 6.625 17.5 6.625Z" stroke="#666666" stroke-width="2" stroke-linecap="round" stroke-linejoin="round"/>
<path d="M14 18.875V4.875C14 4.41087 13.8156 3.96575 13.4874 3.63756C13.1592 3.30937 12.7141 3.125 12.25 3.125H8.75C8.28587 3.125 7.84075 3.30937 7.51256 3.63756C7.18437 3.96575 7 4.41087 7 4.875V18.875" stroke="#666666" stroke-width="2" stroke-linecap="round" stroke-linejoin="round"/>
</svg>
