<svg width="21" height="22" viewBox="0 0 21 22" fill="none" xmlns="http://www.w3.org/2000/svg">
<path d="M15.75 3.125C15.0538 3.125 14.3861 3.40156 13.8938 3.89384C13.4016 4.38613 13.125 5.05381 13.125 5.75V16.25C13.125 16.9462 13.4016 17.6139 13.8938 18.1062C14.3861 18.5984 15.0538 18.875 15.75 18.875C16.4462 18.875 17.1139 18.5984 17.6062 18.1062C18.0984 17.6139 18.375 16.9462 18.375 16.25C18.375 15.5538 18.0984 14.8861 17.6062 14.3938C17.1139 13.9016 16.4462 13.625 15.75 13.625H5.25C4.55381 13.625 3.88613 13.9016 3.39384 14.3938C2.90156 14.8861 2.625 15.5538 2.625 16.25C2.625 16.9462 2.90156 17.6139 3.39384 18.1062C3.88613 18.5984 4.55381 18.875 5.25 18.875C5.94619 18.875 6.61387 18.5984 7.10616 18.1062C7.59844 17.6139 7.875 16.9462 7.875 16.25V5.75C7.875 5.05381 7.59844 4.38613 7.10616 3.89384C6.61387 3.40156 5.94619 3.125 5.25 3.125C4.55381 3.125 3.88613 3.40156 3.39384 3.89384C2.90156 4.38613 2.625 5.05381 2.625 5.75C2.625 6.44619 2.90156 7.11387 3.39384 7.60616C3.88613 8.09844 4.55381 8.375 5.25 8.375H15.75C16.4462 8.375 17.1139 8.09844 17.6062 7.60616C18.0984 7.11387 18.375 6.44619 18.375 5.75C18.375 5.05381 18.0984 4.38613 17.6062 3.89384C17.1139 3.40156 16.4462 3.125 15.75 3.125Z" stroke="#666666" stroke-width="2" stroke-linecap="round" stroke-linejoin="round"/>
</svg>
