<svg width="20" height="20" viewBox="0 0 20 20" fill="none" xmlns="http://www.w3.org/2000/svg">
<path opacity="0.3" d="M14.4698 19.5734H5.52909C4.14284 19.6596 2.78149 19.179 1.75712 18.2427C0.820823 17.2174 0.340232 15.856 0.426393 14.4708V5.52917C0.340232 4.14389 0.819866 2.78254 1.75616 1.75723C2.78149 0.820942 4.14284 0.340354 5.52909 0.426515H14.4698C15.8542 0.340354 17.2146 0.819984 18.2389 1.75627C19.1743 2.78254 19.6558 4.14293 19.5735 5.52917V14.4708C19.6587 15.856 19.1791 17.2174 18.2428 18.2427C17.2174 19.179 15.8561 19.6596 14.4698 19.5734" fill="white"/>
<path d="M14.8438 8.46429L8.56403 14.7753C8.23745 15.0932 7.80823 15.2708 7.36034 15.2708H5.16756C5.04626 15.2708 4.93429 15.224 4.85031 15.1399C4.76633 15.0558 4.729 14.9436 4.729 14.822L4.78499 12.6062C4.79432 12.1667 4.97161 11.7553 5.27953 11.4468L9.73041 6.98705C9.80505 6.91226 9.93569 6.91226 10.0103 6.98705L11.5714 8.54189C11.674 8.6438 11.8233 8.71018 11.982 8.71018C12.3272 8.71018 12.5978 8.4297 12.5978 8.09311C12.5978 7.92482 12.5325 7.77522 12.4299 7.66303C12.4019 7.62563 10.9154 6.14559 10.9154 6.14559C10.8221 6.05209 10.8221 5.89315 10.9154 5.79965L11.5406 5.16388C12.1191 4.58421 13.0522 4.58421 13.6308 5.16388L14.8438 6.37933C15.413 6.94965 15.413 7.88461 14.8438 8.46429" fill="white"/>
</svg>
