<svg width="21" height="22" viewBox="0 0 21 22" fill="none" xmlns="http://www.w3.org/2000/svg">
<path d="M17.5 11V19.75H3.5V11" stroke="#666666" stroke-width="2" stroke-linecap="round" stroke-linejoin="round"/>
<path d="M19.25 6.625H1.75V11H19.25V6.625Z" stroke="#666666" stroke-width="2" stroke-linecap="round" stroke-linejoin="round"/>
<path d="M10.5 19.75V6.625" stroke="#666666" stroke-width="2" stroke-linecap="round" stroke-linejoin="round"/>
<path d="M10.5 6.625H6.5625C5.98234 6.625 5.42594 6.39453 5.0157 5.9843C4.60547 5.57406 4.375 5.01766 4.375 4.4375C4.375 3.85734 4.60547 3.30094 5.0157 2.8907C5.42594 2.48047 5.98234 2.25 6.5625 2.25C9.625 2.25 10.5 6.625 10.5 6.625Z" stroke="#666666" stroke-width="2" stroke-linecap="round" stroke-linejoin="round"/>
<path d="M10.5 6.625H14.4375C15.0177 6.625 15.5741 6.39453 15.9843 5.9843C16.3945 5.57406 16.625 5.01766 16.625 4.4375C16.625 3.85734 16.3945 3.30094 15.9843 2.8907C15.5741 2.48047 15.0177 2.25 14.4375 2.25C11.375 2.25 10.5 6.625 10.5 6.625Z" stroke="#666666" stroke-width="2" stroke-linecap="round" stroke-linejoin="round"/>
</svg>
