<svg width="21" height="22" viewBox="0 0 21 22" fill="none" xmlns="http://www.w3.org/2000/svg">
<path d="M16.625 3.125H4.375C3.4085 3.125 2.625 3.9085 2.625 4.875V17.125C2.625 18.0915 3.4085 18.875 4.375 18.875H16.625C17.5915 18.875 18.375 18.0915 18.375 17.125V4.875C18.375 3.9085 17.5915 3.125 16.625 3.125Z" stroke="#666666" stroke-width="2" stroke-linecap="round" stroke-linejoin="round"/>
<path d="M7.4375 9.25C8.16237 9.25 8.75 8.66237 8.75 7.9375C8.75 7.21263 8.16237 6.625 7.4375 6.625C6.71263 6.625 6.125 7.21263 6.125 7.9375C6.125 8.66237 6.71263 9.25 7.4375 9.25Z" stroke="#666666" stroke-width="2" stroke-linecap="round" stroke-linejoin="round"/>
<path d="M18.375 13.625L14 9.25L4.375 18.875" stroke="#666666" stroke-width="2" stroke-linecap="round" stroke-linejoin="round"/>
</svg>
