<svg width="121" height="34" viewBox="0 0 121 34" fill="none" xmlns="http://www.w3.org/2000/svg">
<path d="M25.6571 15.3935C25.0131 13.8744 24.079 12.4945 22.9066 11.3305C21.7284 10.1807 20.3335 9.27448 18.8022 8.66399C15.5153 7.39228 11.8696 7.39228 8.58275 8.66399C7.04868 9.27392 5.65265 10.1836 4.47693 11.3393C3.30122 12.495 2.36959 13.8735 1.73694 15.3935C1.05042 17.0358 0.707443 18.8004 0.728982 20.5793C0.70877 22.3677 1.05162 24.1418 1.73694 25.7949C2.36544 27.3204 3.29582 28.7042 4.47263 29.8639C5.64943 31.0236 7.04856 31.9354 8.58663 32.545C11.8732 33.8185 15.5195 33.8185 18.8061 32.545C20.3374 31.9345 21.7323 31.0283 22.9105 29.8785C24.087 28.71 25.0216 27.3224 25.661 25.7949C26.3421 24.1407 26.6831 22.3672 26.6638 20.5793C26.6833 18.8007 26.3409 17.0366 25.6571 15.3935ZM13.6951 26.5254C12.5194 26.5256 11.37 26.1785 10.3924 25.528C9.41469 24.8775 8.65262 23.9528 8.20253 22.8708C7.75244 21.7888 7.63454 20.5981 7.86375 19.4494C8.09295 18.3007 8.65897 17.2454 9.49022 16.4171C10.3215 15.5889 11.3806 15.0248 12.5337 14.7962C13.6867 14.5676 14.882 14.6848 15.9682 15.1329C17.0544 15.5811 17.9828 16.3401 18.636 17.3139C19.2892 18.2877 19.6379 19.4326 19.6379 20.6038C19.638 21.3814 19.4844 22.1514 19.1859 22.8698C18.8873 23.5882 18.4496 24.241 17.8977 24.7909C17.3459 25.3408 16.6907 25.777 15.9696 26.0746C15.2485 26.3722 14.4756 26.5254 13.6951 26.5254Z" fill="black"/>
<path d="M53.8788 8.34521H45.5405L39.9463 15.4399L34.3533 8.34521H26.0137L35.7771 20.7265L26.0137 33.1077H34.3533L39.9463 26.0143L45.5405 33.1077H53.8788L44.1167 20.7265L53.8788 8.34521Z" fill="black"/>
<path d="M105.93 33.1091H98.8505V18.8589C98.8505 17.6302 98.5262 16.6093 97.8776 15.7962C97.2289 14.9831 96.2037 14.5757 94.8019 14.574C93.5339 14.574 92.5333 14.9814 91.8001 15.7962C91.0668 16.611 90.7001 17.6487 90.7001 18.9093V33.1065H83.3335V8.34784H90.4501V11.8752C91.1808 10.6025 92.2489 9.55456 93.5374 8.84603C93.8752 8.65593 94.2258 8.48946 94.5868 8.34784C95.4944 7.92708 96.4827 7.70694 97.4837 7.70251C99.0501 7.70251 99.7937 7.96065 100.929 8.47691C102.019 8.9604 102.986 9.68464 103.754 10.5949C104.517 11.5156 105.079 12.5847 105.404 13.7337C105.762 14.9808 105.939 16.2725 105.93 17.5696V31.4648L107.486 33.1078L105.93 33.1091Z" fill="black"/>
<path d="M67.0777 7.54761C73.7525 7.54761 80.0904 12.194 80.0904 19.9198V22.1617H60.4534C60.8615 25.3561 63.8673 27.1204 67.2306 27.1204C70.3892 27.1204 72.6823 25.7381 73.803 24.117L78.9659 28.1594C76.6222 31.3537 72.4945 33.5001 67.1438 33.5001C59.5517 33.5001 53.228 28.2652 53.228 20.7316C53.228 13.6731 59.3328 7.54761 67.0777 7.54761ZM60.4612 18.0845H72.8767C72.2393 15.156 69.5872 13.7647 66.8808 13.7647C64.1743 13.7647 61.1505 15.0566 60.4612 18.0845Z" fill="black"/>
<path d="M118.771 31.701V8.49111H111.259V33.344H120.272L118.771 31.701Z" fill="black"/>
<path d="M118.759 -0.00012207H111.259V5.61165H118.759V-0.00012207Z" fill="black"/>
</svg>
